# xmcd CD database file
#
# Track frame offsets:
#	150
#	15482
#	41082
#	62032
#
# Disc length: 1156 seconds
#
# Revision: 2
# Processed by: cddbd v1.5PL3 Copyright (c) Steve Scherf et al.
# Submitted via: CDex 1.50
#
DISCID=2b048204
DTITLE=ガゼット - COCKAYNE SOUP
DYEAR=1900
DGENRE=Rock
TTITLE0=Beautiful 5 ［shit］ers
TTITLE1=32口径の拳銃
TTITLE2=幸せな日々
TTITLE3=春ニ散リケリ、身ハ枯レルデゴザイマス
EXTD=
EXTT0=
EXTT1=
EXTT2=
EXTT3=
PLAYORDER=
